<svg width="24" height="25" viewBox="0 0 24 25" fill="none" xmlns="http://www.w3.org/2000/svg">
<path opacity="0.32" d="M2.162 9.38672C2 10.4897 2 11.9367 2 13.8867C2 17.6577 2 19.5437 3.172 20.7147C4.343 21.8867 6.229 21.8867 10 21.8867H14C17.771 21.8867 19.657 21.8867 20.828 20.7147C22 19.5437 22 17.6577 22 13.8867C22 11.9367 22 10.4897 21.838 9.38672C19.561 10.8667 18.102 11.8097 16.75 12.3917V12.8867C16.7511 12.9852 16.7327 13.0829 16.696 13.1743C16.6593 13.2657 16.6049 13.349 16.536 13.4194C16.3968 13.5615 16.2069 13.6426 16.008 13.6447C15.8091 13.6468 15.6175 13.5699 15.4753 13.4307C15.3332 13.2916 15.2521 13.1016 15.25 12.9027C13.1197 13.4643 10.8803 13.4643 8.75 12.9027C8.74788 13.1016 8.66683 13.2916 8.52467 13.4307C8.38252 13.5699 8.19091 13.6468 7.992 13.6447C7.79309 13.6426 7.60317 13.5615 7.46401 13.4194C7.32486 13.2772 7.24788 13.0856 7.25 12.8867V12.3907C5.898 11.8107 4.44 10.8667 2.162 9.38672Z" fill="#1977F2"/>
<path fill-rule="evenodd" clip-rule="evenodd" d="M10.5801 3.13708H10.5601C10.4461 3.13708 10.3581 3.13708 10.2741 3.14208C9.75451 3.17366 9.25457 3.35206 8.83238 3.65653C8.41019 3.96101 8.08308 4.37905 7.88908 4.86208C7.84646 4.97548 7.80645 5.08984 7.76908 5.20508L7.76508 5.21708C7.66192 5.48974 7.48753 5.72974 7.26008 5.91208C7.03308 5.92008 6.81608 5.92908 6.60808 5.94208C4.96408 6.03808 3.92108 6.30808 3.17008 7.05908C2.92608 7.30308 2.73208 7.57908 2.58008 7.89708C2.63854 7.91714 2.69429 7.94434 2.74608 7.97808C4.84608 9.34308 6.16608 10.1981 7.26208 10.7451C7.29675 10.5612 7.39889 10.397 7.54843 10.2846C7.69798 10.1722 7.88414 10.1197 8.07038 10.1375C8.25662 10.1553 8.42949 10.242 8.55506 10.3807C8.68062 10.5194 8.74983 10.7 8.74908 10.8871V11.3451C10.8691 11.9851 13.1291 11.9851 15.2491 11.3451V10.8871C15.2496 10.7009 15.3194 10.5216 15.4448 10.384C15.5703 10.2464 15.7424 10.1604 15.9277 10.1427C16.1131 10.125 16.2984 10.1768 16.4476 10.2882C16.5968 10.3995 16.6993 10.5624 16.7351 10.7451C17.8321 10.1971 19.1521 9.34308 21.2521 7.97808C21.3042 7.9443 21.3603 7.9171 21.4191 7.89708C21.271 7.58604 21.0707 7.30263 20.8271 7.05908C20.0771 6.30908 19.0341 6.03908 17.3901 5.94108C17.1931 5.93008 16.9871 5.92108 16.7721 5.91308C16.5204 5.70806 16.3261 5.44142 16.2081 5.13908L16.2041 5.13008C16.1681 5.02308 16.1401 4.93908 16.1091 4.86108C15.9149 4.37824 15.5878 3.9604 15.1656 3.65612C14.7434 3.35183 14.2435 3.17358 13.7241 3.14208C13.6288 3.13758 13.5334 3.13591 13.4381 3.13708H10.5801ZM14.8171 5.70308L14.8121 5.69208L14.8071 5.68008L14.8021 5.66808L14.7991 5.65808L14.7971 5.65308L14.7931 5.64108L14.7891 5.62908L14.7871 5.62308L14.7841 5.61508L14.7821 5.60808L14.7801 5.60208C14.7606 5.54122 14.7396 5.48087 14.7171 5.42108C14.6289 5.2015 14.4803 5.01145 14.2884 4.87302C14.0965 4.73459 13.8693 4.65347 13.6331 4.63908C13.5614 4.63657 13.4897 4.63591 13.4181 4.63708H10.5801C10.4371 4.63708 10.3971 4.63708 10.3651 4.63908C10.1289 4.65347 9.90167 4.73459 9.70978 4.87302C9.51789 5.01145 9.36923 5.2015 9.28108 5.42108L9.27808 5.42808L9.27008 5.44908C9.24239 5.52516 9.21639 5.60185 9.19208 5.67908L9.19108 5.68508L9.18808 5.69208L9.18608 5.70008L9.18408 5.70608L9.18008 5.71808L9.17508 5.73008L9.17408 5.73508L9.17008 5.74508L9.16508 5.75708L9.16108 5.76908L9.15608 5.77908C9.14215 5.81537 9.12748 5.85238 9.11208 5.88808L9.99908 5.88708H14.8951C14.8667 5.82663 14.8414 5.76527 14.8171 5.70308Z" fill="#1977F2"/>
</svg>
