<svg width="24" height="25" viewBox="0 0 24 25" fill="none" xmlns="http://www.w3.org/2000/svg">
<g opacity="0.32">
<path d="M2.60946 23.871C1.77292 23.8498 1.13928 23.3466 1.07089 22.5126C1.02993 22.0131 1 21.3265 1 20.3867C1 19.4469 1.02993 18.7604 1.07089 18.2608C1.13928 17.4268 1.77292 16.9237 2.60946 16.9024C2.97545 16.8931 3.43306 16.8867 4 16.8867C4.56694 16.8867 5.02455 16.8931 5.39055 16.9024C6.2271 16.9237 6.8607 17.4268 6.9291 18.2608C6.97005 18.7604 7 19.4469 7 20.3867C7 21.3265 6.97005 22.0131 6.9291 22.5126C6.8607 23.3466 6.2271 23.8498 5.39055 23.871C5.02455 23.8803 4.56694 23.8867 4 23.8867C3.43306 23.8867 2.97545 23.8803 2.60946 23.871Z" fill="#637381"/>
<path d="M18.8455 23.866C17.8709 23.8275 17.1875 23.1424 17.1243 22.169C17.0588 21.1598 17 19.5204 17 16.8867C17 14.253 17.0588 12.6137 17.1243 11.6044C17.1875 10.6311 17.8709 9.94592 18.8455 9.90747C19.1671 9.89477 19.549 9.88672 20 9.88672C20.451 9.88672 20.8329 9.89477 21.1545 9.90747C22.1291 9.94592 22.8125 10.6311 22.8757 11.6044C22.9412 12.6137 23 14.253 23 16.8867C23 19.5204 22.9412 21.1598 22.8757 22.169C22.8125 23.1424 22.1291 23.8275 21.1545 23.866C20.8329 23.8787 20.451 23.8867 20 23.8867C19.549 23.8867 19.1671 23.8787 18.8455 23.866Z" fill="#637381"/>
<path d="M10.7766 23.8699C9.8427 23.8415 9.162 23.2286 9.0949 22.2967C9.0422 21.5642 9 20.4803 9 18.8867C9 17.2931 9.0422 16.2092 9.0949 15.4768C9.162 14.5449 9.8427 13.932 10.7766 13.9036C11.1122 13.8934 11.5163 13.8867 12 13.8867C12.4837 13.8867 12.8878 13.8934 13.2234 13.9036C14.1573 13.932 14.838 14.5449 14.9051 15.4768C14.9578 16.2092 15 17.2931 15 18.8867C15 20.4803 14.9578 21.5642 14.9051 22.2967C14.838 23.2286 14.1573 23.8415 13.2234 23.8699C12.8878 23.8801 12.4837 23.8867 12 23.8867C11.5163 23.8867 11.1122 23.8801 10.7766 23.8699Z" fill="#637381"/>
</g>
<path d="M20.9603 6.93732C20.9106 7.92527 19.9709 8.29647 19.242 7.62772C18.9106 7.32362 18.5138 6.94927 18.0418 6.48957C16.9756 7.45982 15.322 8.97257 13.3506 10.8032C12.8329 11.2839 11.992 11.2302 11.5397 10.6874L11.5394 10.687C10.6518 9.62507 9.75755 8.56742 8.8322 7.53812C7.7509 8.33202 5.81 9.84497 3.88389 11.7711C3.39573 12.2592 2.60427 12.2592 2.11612 11.7711C1.62796 11.2829 1.62796 10.4915 2.11612 10.0033C4.00573 8.11372 6.079 6.34122 8.30255 4.84986L8.306 4.84754C8.30685 4.84698 8.3066 4.84713 8.3066 4.84713C8.8024 4.51662 9.46255 4.58198 9.8839 5.00331C10.8519 5.97127 11.7265 7.03597 12.6118 8.07937C14.1169 6.68737 15.3848 5.52758 16.274 4.71812C15.8705 4.30177 15.5362 3.94678 15.26 3.64569C14.591 2.91669 14.9624 1.9767 15.9506 1.92697C17.2115 1.86351 18.5055 1.82617 19.7511 2.05904C20.3119 2.16389 20.7233 2.57534 20.8281 3.1362C21.061 4.38193 21.0238 5.6762 20.9603 6.93732Z" fill="#637381"/>
</svg>
